<?xml version="1.0" encoding="utf-8"?>
<!-- Generator: Adobe Illustrator 22.1.0, SVG Export Plug-In . SVG Version: 6.00 Build 0)  -->
<svg width="237px" height="100px" version="1.1" id="Layer_1" xmlns="http://www.w3.org/2000/svg" xmlns:xlink="http://www.w3.org/1999/xlink" x="0px" y="0px"
	 viewBox="0 0 792 329" style="enable-background:new 0 0 792 329;" xml:space="preserve">
<style type="text/css">
	.st0{fill:#EBEBEB;}
	.st1{fill:url(#SVGID_1_);}
	.st2{fill:#EFD72F;}
</style>
<title>Artboard 1</title>
<path class="st0" d="M352.4,254.8h-48.7v69.5h-58.5V76.5H349c50.8,0,88.8,38.4,88.8,89.2C437.8,208.7,403.6,254.8,352.4,254.8
	 M349.4,131.1h-45.7v66.5h46.5c16.6,0,29-13.2,29-33.3C379.3,146,368.2,131.1,349.4,131.1"/>
<polygon class="st0" points="689.8,324.4 642.4,250.5 595.1,324.4 524.7,324.4 609.2,198.1 528.1,76.4 598.5,76.4 642.4,148.2 
	686.4,76.4 756.8,76.4 675.7,198.1 760.2,324.4 "/>
<linearGradient id="SVGID_1_" gradientUnits="userSpaceOnUse" x1="484.765" y1="25.63" x2="484.765" y2="273.55" gradientTransform="matrix(1 0 0 -1 0 350)">
	<stop  offset="0" style="stop-color:#CA8A2A"/>
	<stop  offset="0.5" style="stop-color:#F4BD18"/>
	<stop  offset="1" style="stop-color:#EFD72F"/>
</linearGradient>
<path class="st1" d="M455.5,76.4H514v247.9h-58.5V76.4z"/>
<path class="st0" d="M70.8,226.2c2.6,27.3,22.6,45.2,52.9,45.2c19.2,0,39.7-8.5,54.2-25.2L221,283c-26.5,30.3-59.3,44.4-96.4,44.4
	C52.9,327.4,9,279.6,9,198.5c0-73,45.2-124.1,108.8-124.1c64,0,107.1,44.4,107.1,112.6v39.3L70.8,226.2z M117.8,130.2
	c-23.4,0-43.5,17.9-46.5,40.5h90.9C159.6,151.1,146.8,130.2,117.8,130.2"/>
<path class="st0" d="M774.2,324.6c-4.6,0-8.3-3.7-8.3-8.3s3.7-8.3,8.3-8.3c4.6,0,8.3,3.7,8.3,8.3c0.1,4.5-3.5,8.2-7.9,8.3
	C774.4,324.6,774.3,324.6,774.2,324.6z M774.2,309.4c-3.8,0-6.9,3.1-6.9,6.9c0,3.8,3.1,6.9,6.9,6.9c3.8,0,6.9-3.1,6.9-6.9
	c0.1-3.7-2.9-6.9-6.6-6.9C774.4,309.4,774.3,309.4,774.2,309.4L774.2,309.4z M776.1,317l1.8,3.6h-1.8l-1.8-3.5h-1.7v3.5h-1.5v-9h3.9
	c1.4-0.2,2.8,0.8,3,2.3c0,0.2,0,0.3,0,0.5C778.1,315.6,777.3,316.7,776.1,317L776.1,317z M775,313.1h-2.4v2.5h2.4
	c0.8,0,1.4-0.4,1.4-1.3c0-0.7-0.5-1.3-1.2-1.3C775.1,313.1,775.1,313.1,775,313.1z"/>
<path class="st2" d="M515.3,31.7c0-16.9-13.7-30.6-30.6-30.6c-16.9,0-30.6,13.7-30.6,30.6s13.7,30.6,30.6,30.6c0,0,0,0,0,0
	C501.6,62.3,515.2,48.6,515.3,31.7"/>
</svg>
